<?xml version="1.0" encoding="utf-8"?>
<svg height="800px" width="800px" version="1.1" id="Layer_1" viewBox="0 0 508 508" xmlns="http://www.w3.org/2000/svg">
  <circle style="fill: rgb(255, 111, 0);" cx="254" cy="254" r="254"/>
  <circle style="fill: rgb(62, 85, 124);" cx="254" cy="254" r="165.365"/>
  <g>
    <path style="fill:#4CDBC4;" d="M254,98c-4.4,0-8,3.6-8,8v15.6c0,4.4,3.6,8,8,8s8-3.6,8-8V106C262,101.6,258.4,98,254,98z"/>
    <path style="fill: rgb(255, 255, 255);" d="M 252.826 437.707 C 248.426 437.707 244.826 441.307 244.826 445.707 L 244.826 461.307 C 244.826 465.707 248.426 469.307 252.826 469.307 C 257.226 469.307 260.826 465.707 260.826 461.307 L 260.826 445.707 C 260.826 441.307 257.226 437.707 252.826 437.707 Z"/>
    <path style="fill: rgb(255, 255, 255);" d="M 461.543 244.662 L 445.943 244.662 C 441.543 244.662 437.943 248.262 437.943 252.662 C 437.943 257.062 441.543 260.662 445.943 260.662 L 461.543 260.662 C 465.943 260.662 469.543 257.062 469.543 252.662 C 469.543 248.262 465.943 244.662 461.543 244.662 Z"/>
    <path style="fill: rgb(255, 255, 255);" d="M 57.596 246.587 L 41.996 246.587 C 37.596 246.587 33.996 250.187 33.996 254.587 C 33.996 258.987 37.596 262.587 41.996 262.587 L 57.596 262.587 C 61.996 262.587 65.596 258.987 65.596 254.587 C 65.596 250.187 61.996 246.587 57.596 246.587 Z"/>
  </g>
  <circle style="fill: rgb(255, 255, 255);" cx="254" cy="254" r="35.624"/>
  <path style="fill: rgb(255, 255, 255);" d="M 270.731 242.379 L 270.731 54.793 C 270.731 47.212 262.487 40.581 253.064 40.581 C 243.642 40.581 235.398 47.212 235.398 54.793 L 235.398 242.379 C 241.286 241.432 247.176 240.484 253.064 240.484 C 258.955 240.484 264.842 241.432 270.731 242.379 Z"/>
  <path style="fill: rgb(255, 255, 255);" d="M 225.704 263.388 L 168.795 320.487 C 167.995 321.287 168.754 330.843 169.554 331.643 C 169.954 332.043 179.381 334.512 179.781 334.112 L 238.229 278.132 C 236.629 277.732 226.504 264.188 225.704 263.388 Z"/>
  <path style="fill: rgb(255, 255, 255);" d="M 375.783 353.419 L 273.468 246.683 C 266.992 258.693 257.926 268.029 246.27 274.7 L 348.585 380.103 C 352.471 384.105 357.652 385.437 362.832 385.437 C 368.013 385.437 373.192 384.105 377.081 380.103 C 383.555 373.432 383.555 361.423 375.783 353.419 Z"/>
  <g/>
</svg>